Coordinates
version=1
nRows=19
nColumns=36
inDegrees=yes

Units are S.I. units (second, meters, Newtons, ...)
If the header above contains a line with 'inDegrees', this indicates whether rotational values are in degrees (yes) or radians (no).

endheader
time	pelvis_tilt	pelvis_list	pelvis_rotation	pelvis_tx	pelvis_ty	pelvis_tz	hip_flexion_r	hip_adduction_r	hip_rotation_r	knee_angle_r	knee_angle_r_beta	ankle_angle_r	subtalar_angle_r	mtp_angle_r	hip_flexion_l	hip_adduction_l	hip_rotation_l	knee_angle_l	knee_angle_l_beta	ankle_angle_l	subtalar_angle_l	mtp_angle_l	lumbar_extension	lumbar_bending	lumbar_rotation	arm_flex_r	arm_add_r	arm_rot_r	elbow_flex_r	pro_sup_r	arm_flex_l	arm_add_l	arm_rot_l	elbow_flex_l	pro_sup_l
      0.35000000	      1.49679308	     -5.99791951	      2.71587911	      0.34140708	      0.96632108	     -0.20933838	      0.08950120	      9.40647167	      2.59540504	      9.17980266	      0.16021778	      8.62375523	    -10.35012546	     -6.21823661	     25.19662203	     -5.62225044	      3.73906093	     61.43183552	      1.07218780	      1.62672186	    -12.63270675	     -6.21823661	     -9.84798638	      4.67443996	      3.38308352	     10.30345945	     -5.27729280	     -2.34651133	     41.83057356	    103.88096748	      4.24920567	     -7.20132281	      5.50300289	     32.40875120	    104.09962456
      0.36000000	      1.54436323	     -5.65027802	      2.50226389	      0.35259246	      0.96742903	     -0.20830553	     -1.21923700	      9.09860632	      2.82579865	      8.29830608	      0.14483276	      9.06662704	     -9.69016590	     -6.24572032	     25.72812692	     -5.34316281	      3.10892481	     58.87226617	      1.02751488	      1.78098427	    -12.44709001	     -6.24572032	     -9.86228864	      4.04306311	      4.10982195	     10.71486679	     -5.15900263	     -2.08469375	     42.65648964	    104.12858385	      3.74957869	     -7.12187474	      4.70390761	     32.10249387	    104.09795324
      0.37000000	      1.19283032	     -5.35613785	      2.36116846	      0.36375987	      0.96762977	     -0.20737909	     -2.02049294	      8.82612484	      2.92233207	      7.51215100	      0.13111177	      9.23901093	     -9.32777376	     -6.25615424	     26.70955284	     -5.05904206	      2.64592229	     56.22159651	      0.98125197	      1.87283451	    -12.21542373	     -6.25615424	     -9.33533165	      3.45185065	      4.63900054	     11.08149778	     -4.99225161	     -1.81370119	     43.36103997	    104.25770092	      3.12564797	     -7.20828058	      4.36555557	     31.80044948	    104.08037961
      0.38000000	      1.08051261	     -5.00470166	      2.16624764	      0.37494903	      0.96800872	     -0.20637510	     -3.11077586	      8.49999325	      3.22179692	      6.70263367	      0.11698303	      9.53524712	     -8.81990443	     -6.27138133	     27.21663677	     -4.80607313	      2.05383133	     53.15968511	      0.92781153	      1.82134042	    -11.94522693	     -6.27138133	     -9.15708025	      2.75850677	      5.33477781	     11.44328795	     -4.95337718	     -1.37099825	     44.23261551	    104.43603442	      2.69534878	     -7.25156793	      3.81780588	     31.52471166	    104.05933859
      0.39000000	      0.88138524	     -4.81388310	      2.00565736	      0.38618981	      0.96786289	     -0.20550256	     -4.03549495	      8.33614927	      3.32651813	      5.99132510	      0.10456835	      9.79082862	     -8.44490143	     -6.28395167	     27.78725821	     -4.71278373	      1.58898519	     50.01370249	      0.87290378	      1.76612133	    -11.65182902	     -6.28395167	     -8.82888772	      2.28486249	      5.93002350	     11.80204304	     -4.91651824	     -0.97334041	     45.04668093	    104.59006244	      2.16433044	     -7.32512463	      3.36470972	     31.27155970	    104.03840238
      0.40000000	      0.90279716	     -4.62308486	      1.81973508	      0.39743692	      0.96783695	     -0.20461579	     -5.21176691	      8.16990305	      3.49244211	      5.27929998	      0.09214117	     10.16483118	     -7.92908041	     -6.30606703	     27.95125246	     -4.68673908	      1.04065600	     46.54741937	      0.81240573	      1.55243411	    -11.29753011	     -6.30606703	     -8.82402715	      1.77864246	      6.61408985	     12.18663485	     -4.99626852	     -0.42447654	     45.96051280	    104.81164776	      1.75421588	     -7.34639258	      2.65836038	     31.09837113	    104.02729890
      0.41000000	      0.56739327	     -4.47833239	      1.70318484	      0.40868998	      0.96698293	     -0.20386093	     -5.95035798	      8.04282075	      3.60727157	      4.63634477	      0.08091948	     10.33820403	     -7.58563340	     -6.31787824	     28.48327305	     -4.62372159	      0.72878982	     43.01054550	      0.75067563	      1.46464769	    -10.74585339	     -6.31787824	     -8.34656660	      1.30333422	      7.13176129	     12.51969086	     -4.98932173	      0.00743344	     46.75411626	    104.96256961	      1.25454994	     -7.47872454	      2.23729714	     30.88536500	    104.00103708
      0.42000000	      0.58827963	     -4.37173637	      1.53313406	      0.42000781	      0.96642889	     -0.20308227	     -7.09053356	      7.94985051	      3.74398079	      3.98146318	      0.06948964	     10.68338647	     -7.11616714	     -6.34097427	     28.45685172	     -4.71052577	      0.23294298	     39.21450003	      0.68442214	      1.23616427	    -10.00130385	     -6.34097427	     -8.33516546	      0.87072476	      7.76679784	     12.91442680	     -5.11230170	      0.62204581	     47.63772760	    105.18897338	      0.89061986	     -7.51686065	      1.51961307	     30.72584512	    103.96919276
      0.43000000	      0.25177170	     -4.33503741	      1.42427448	      0.43130731	      0.96509751	     -0.20243863	     -7.77381118	      7.92548206	      3.86785017	      3.44298544	      0.06009143	     10.85096641	     -6.80223187	     -6.35301161	     28.79807643	     -4.76926604	      0.05314049	     35.38217199	      0.61753540	      1.14132973	     -9.11952210	     -6.35301161	     -7.86440914	      0.49450374	      8.27969787	     13.23698785	     -5.17825406	      1.08170505	     48.37999207	    105.33312669	      0.45152308	     -7.63710673	      1.08959511	     30.51869256	    103.92864363
      0.44000000	      0.23276780	     -4.29972269	      1.27534507	      0.44268341	      0.96404714	     -0.20181521	     -8.81717560	      7.89120533	      3.95306863	      2.88387156	      0.05033305	     11.18056307	     -6.40877282	     -6.37275481	     28.64245810	     -4.94096090	     -0.42135657	     31.36748894	      0.54746596	      1.00070587	     -7.87514437	     -6.37275481	     -7.80608049	      0.11804910	      8.87139128	     13.61883932	     -5.35310547	      1.70252231	     49.17769970	    105.51365195	      0.15717874	     -7.69589387	      0.42660639	     30.31244228	    103.86266455
      0.45000000	      0.03535838	     -4.33019325	      1.16743955	      0.45404215	      0.96253356	     -0.20132385	     -9.60496240	      7.91601699	      4.01590137	      2.45317584	      0.04281600	     11.46954686	     -5.97438577	     -6.39529008	     28.63286402	     -5.11995271	     -0.68983915	     27.32849056	      0.47697214	      1.05848029	     -6.42485066	     -6.39529008	     -7.52273010	     -0.19635431	      9.36155827	     13.97804398	     -5.49793278	      2.26477417	     49.88347908	    105.57680288	     -0.17971448	     -7.76559849	     -0.19197111	     30.14246515	    103.71755822
      0.46000000	     -0.30782029	     -4.41227680	      1.06835456	      0.46545389	      0.96064225	     -0.20098030	    -10.17369477	      7.98745921	      4.10009414	      2.14058830	      0.03736031	     11.68715045	     -5.65368061	     -6.40937183	     28.71926365	     -5.31442440	     -0.78073047	     23.30680311	      0.40678045	      1.17732407	     -4.94537737	     -6.40937183	     -7.04311553	     -0.46535609	      9.83602823	     14.26455831	     -5.64892744	      2.74731060	     50.51396110	    105.60992069	     -0.52189529	     -7.85376885	     -0.63490359	     29.95377414	    103.58908668
      0.47000000	     -0.29480421	     -4.45451052	      0.93773684	      0.47698440	      0.95915444	     -0.20064576	    -11.13821086	      7.99978382	      4.03625958	      1.82499841	      0.03185223	     12.12453093	     -5.13344451	     -6.43567855	     28.32410034	     -5.60204391	     -1.46178303	     19.32216959	      0.33723548	      1.49625931	     -2.65017096	     -6.43567855	     -7.02266608	     -0.77249271	     10.32120617	     14.64723429	     -5.87085491	      3.40858668	     51.17955159	    105.64138581	     -0.73254859	     -7.88356058	     -1.40940718	     29.78935687	    103.39415676
      0.48000000	     -0.51330980	     -4.56869330	      0.78883119	      0.48861078	      0.95721859	     -0.20039493	    -11.75850834	      8.06794338	      3.83851945	      1.69788586	      0.02963370	     12.64490259	     -4.24996906	     -6.49804148	     28.21865120	     -5.97233607	     -2.23798849	     15.67701957	      0.27361561	      2.38339583	      0.34630745	     -6.49804148	     -6.69044898	     -1.02430360	     10.69882695	     15.00753975	     -6.04032622	      4.07274457	     51.63768195	    105.57331639	     -1.14845421	     -7.85654961	     -2.55119043	     29.92704474	    103.09880943
      0.49000000	     -0.94033046	     -4.75283576	      0.62476234	      0.50027599	      0.95489647	     -0.20026108	    -12.10885337	      8.20994654	      3.89130570	      1.65651604	      0.02891166	     12.80535828	     -4.08684676	     -6.50748025	     28.30296742	     -6.29020411	     -2.35837732	     12.24818557	      0.21377117	      2.61517727	      1.65685026	     -6.50748025	     -6.05749767	     -1.17440657	     11.12753394	     15.18607966	     -6.18237139	      4.42272496	     52.12901743	    105.54472692	     -1.48487430	     -7.95346736	     -2.82170286	     29.73252252	    102.96200463
      0.50000000	     -0.87054911	     -4.70955223	      0.32033973	      0.51208317	      0.95337044	     -0.20000076	    -12.99855150	      8.04746567	      3.74609508	      1.62440094	      0.02835114	     13.36750129	     -3.18908104	     -6.56329007	     27.81639495	     -6.61494314	     -3.83236747	      9.27601892	      0.16189707	      3.50504782	      5.55550595	     -6.56329007	     -6.13778389	     -1.64290342	     11.67542147	     15.56872167	     -6.43670621	      5.08779229	     52.63833116	    105.38199003	     -1.65355611	     -7.90671820	     -3.94308272	     29.76967944	    102.51017117
      0.51000000	     -0.99434785	     -4.74727573	      0.06324117	      0.52396112	      0.95152345	     -0.19985969	    -13.62673172	      7.98813338	      3.82385048	      1.71599516	      0.02994977	     13.61834594	     -2.92056709	     -6.58377921	     27.53749594	     -6.85618439	     -4.27543771	      6.71747961	      0.11724214	      3.72141111	      7.16074050	     -6.58377921	     -5.89557524	     -2.02793779	     12.20047140	     15.72277401	     -6.65338371	      5.55822306	     53.07738606	    105.31860664	     -1.77420325	     -7.99420614	     -4.41621857	     29.56885492	    102.27963206
      0.52000000	     -1.32564270	     -4.82219299	     -0.26752716	      0.53595281	      0.94935825	     -0.19974488	    -13.95874276	      7.94538749	      3.87247189	      1.92828704	      0.03365496	     13.65161689	     -2.74362688	     -6.59072426	     27.60497593	     -7.14658085	     -4.47882736	      4.97094259	      0.08675932	      4.17632378	      7.88463289	     -6.59072426	     -5.38037807	     -2.33741844	     12.64232692	     15.86750082	     -6.74882365	      5.80302837	     53.37276418	    105.28056984	     -2.06491095	     -8.10840199	     -4.65716757	     29.40655749	    102.15174137
      0.53000000	     -1.20674725	     -4.65006181	     -0.69423369	      0.54803383	      0.94799193	     -0.19948471	    -14.73236641	      7.57837373	      3.91066123	      2.25556423	      0.03936702	     14.03881835	     -2.05874923	     -6.62112838	     27.18818431	     -7.32704880	     -5.51477971	      3.90252811	      0.06811196	      4.77700534	     10.05105602	     -6.62112838	     -5.47272028	     -3.03246513	     13.27161994	     16.07445040	     -7.00789679	      6.41758906	     53.79431084	    105.15835855	     -2.03854004	     -8.11327236	     -5.58029223	     29.25506703	    101.75806574
